<svg xmlns="http://www.w3.org/2000/svg" width="1200" height="400" viewBox="0 0 1200 400">
  <rect width="1200" height="400" fill="#050505"/>
  <g fill="#fff" shape-rendering="crispEdges">
    <rect x="50" y="45" width="8" height="8"/><rect x="170" y="90" width="5" height="5"/><rect x="1080" y="55" width="7" height="7"/><rect x="1010" y="155" width="5" height="5"/><rect x="85" y="310" width="6" height="6"/>
    <g transform="translate(130 105) scale(10)">
      <rect x="2" y="1" width="6" height="4"/><rect x="1" y="0" width="1" height="1"/><rect x="4" y="0" width="1" height="1"/>
      <rect x="3" y="2" width="1" height="1" fill="#050505"/><rect x="8" y="2" width="1" height="1"/><rect x="9" y="3" width="1" height="1"/>
      <rect x="0" y="1" width="2" height="1"/><rect x="8" y="1" width="2" height="1"/><rect x="2" y="6" width="2" height="1"/><rect x="6" y="6" width="2" height="1"/>
    </g>
    <g transform="translate(930 75) scale(6)">
      <rect x="5" y="3" width="20" height="11" rx="4"/><rect x="10" y="6" width="2" height="2" fill="#050505"/><rect x="19" y="6" width="2" height="2" fill="#050505"/>
      <rect x="12" y="1" width="3" height="2"/><rect x="17" y="0" width="2" height="3"/><path d="M5 5L0 1v5l5 4zm20 0 5-4v5l-5 4z"/>
      <path d="M10 14 8 18h3l2-4zm9 0 2 4h3l-2-4z"/>
    </g>
    <g transform="translate(550 295) scale(8)"><path d="M5 0 0 7h10z"/><rect x="4" y="3" width="3" height="5"/></g>
    <rect x="592" y="250" width="8" height="28"/><rect x="592" y="210" width="8" height="18"/>
  </g>
  <text x="600" y="145" fill="#fff" text-anchor="middle" font-family="monospace" font-size="68" font-weight="700">BUG_STORM</text>
  <text x="600" y="215" fill="#fff" text-anchor="middle" font-family="monospace" font-size="46">1-BIT</text>
  <text x="600" y="365" fill="#aaa" text-anchor="middle" font-family="monospace" font-size="22">STM32L151 • 124 × 60 OLED • EVENT-DRIVEN ARCADE</text>
</svg>

